STARTFONT 2.1
FONT -FontForge-Glass TTY VT220-Medium-R-Normal--16-100-120-120-C-80-ISO10646-1
SIZE 10 120 120
FONTBOUNDINGBOX 8 16 0 -3
COMMENT "Generated by fontforge, http://fontforge.sourceforge.net"
COMMENT "Created by svo with FontForge 2.0 (http://fontforge.sf.net)"
COMMENT ""
COMMENT "Use font size 15 on Windows"
COMMENT "Use font size 20 on Mac/Linux "
STARTPROPERTIES 41
FOUNDRY "FontForge"
FAMILY_NAME "Glass TTY VT220"
WEIGHT_NAME "Medium"
SLANT "R"
SETWIDTH_NAME "Normal"
ADD_STYLE_NAME ""
PIXEL_SIZE 16
POINT_SIZE 100
RESOLUTION_X 120
RESOLUTION_Y 120
SPACING "C"
AVERAGE_WIDTH 80
CHARSET_REGISTRY "ISO10646"
CHARSET_ENCODING "1"
FONTNAME_REGISTRY ""
CHARSET_COLLECTIONS "ISO8859-5 ISO10646-1"
FONT_NAME "Glass_TTY_VT220"
FACE_NAME "VT220"
COPYRIGHT "Created by svo with FontForge 2.0 (http://fontforge.sf.net)"
FONT_VERSION "001.3"
FONT_ASCENT 13
FONT_DESCENT 3
UNDERLINE_POSITION -2
UNDERLINE_THICKNESS 1
X_HEIGHT 7
CAP_HEIGHT 10
DEFAULT_CHAR 1
RAW_ASCENT 800
RAW_DESCENT 200
NORM_SPACE 8
RELATIVE_WEIGHT 50
RELATIVE_SETWIDTH 50
SUPERSCRIPT_X 0
SUPERSCRIPT_Y 7
SUPERSCRIPT_SIZE 11
SUBSCRIPT_X 0
SUBSCRIPT_Y 2
SUBSCRIPT_SIZE 11
FIGURE_WIDTH 8
AVG_LOWERCASE_WIDTH 80
AVG_UPPERCASE_WIDTH 80
ENDPROPERTIES
CHARS 323
STARTCHAR uni0000
ENCODING 0
SWIDTH 500 0
DWIDTH 8 0
BBX 6 10 0 1
BITMAP
78
84
00
60
00
00
30
00
00
10
ENDCHAR
STARTCHAR uni0001
ENCODING 1
SWIDTH 500 0
DWIDTH 8 0
BBX 5 10 1 1
BITMAP
20
70
00
F8
00
00
F8
00
70
20
ENDCHAR
STARTCHAR uni0002
ENCODING 2
SWIDTH 500 0
DWIDTH 8 0
BBX 6 10 0 1
BITMAP
94
48
00
F4
00
00
F4
00
48
94
ENDCHAR
STARTCHAR uni0003
ENCODING 3
SWIDTH 500 0
DWIDTH 8 0
BBX 6 12 0 -1
BITMAP
90
90
00
F0
00
00
FC
00
18
18
00
18
ENDCHAR
STARTCHAR uni0004
ENCODING 4
SWIDTH 500 0
DWIDTH 8 0
BBX 6 12 0 -1
BITMAP
F0
80
00
E0
00
00
FC
00
10
18
00
30
ENDCHAR
STARTCHAR uni0005
ENCODING 5
SWIDTH 500 0
DWIDTH 8 0
BBX 6 12 0 -1
BITMAP
70
80
00
C0
00
00
7C
00
14
18
00
34
ENDCHAR
STARTCHAR uni0006
ENCODING 6
SWIDTH 500 0
DWIDTH 8 0
BBX 6 12 0 -1
BITMAP
80
80
00
C0
00
00
FC
00
10
18
00
30
ENDCHAR
STARTCHAR uni0007
ENCODING 7
SWIDTH 500 0
DWIDTH 8 0
BBX 4 4 1 7
BITMAP
70
90
00
70
ENDCHAR
STARTCHAR uni0008
ENCODING 8
SWIDTH 500 0
DWIDTH 8 0
BBX 6 9 0 1
BITMAP
10
00
30
00
00
30
00
10
FC
ENDCHAR
STARTCHAR uni0009
ENCODING 9
SWIDTH 500 0
DWIDTH 8 0
BBX 5 12 0 -1
BITMAP
98
D8
00
F8
00
00
F8
00
10
10
00
30
ENDCHAR
STARTCHAR uni000A
ENCODING 10
SWIDTH 500 0
DWIDTH 8 0
BBX 6 12 0 -1
BITMAP
98
98
00
70
00
00
3C
00
18
18
00
18
ENDCHAR
STARTCHAR uni000B
ENCODING 11
SWIDTH 500 0
DWIDTH 8 0
BBX 2 6 2 7
BITMAP
C0
00
40
40
00
C0
ENDCHAR
STARTCHAR uni000C
ENCODING 12
SWIDTH 500 0
DWIDTH 8 0
BBX 2 6 2 -1
BITMAP
C0
00
40
40
00
C0
ENDCHAR
STARTCHAR uni000D
ENCODING 13
SWIDTH 500 0
DWIDTH 8 0
BBX 2 6 2 -1
BITMAP
C0
00
40
40
00
C0
ENDCHAR
STARTCHAR uni000E
ENCODING 14
SWIDTH 500 0
DWIDTH 8 0
BBX 2 6 2 7
BITMAP
C0
00
40
40
00
C0
ENDCHAR
STARTCHAR uni000F
ENCODING 15
SWIDTH 500 0
DWIDTH 8 0
BBX 2 14 2 -1
BITMAP
C0
00
40
40
00
C0
00
00
C0
00
40
40
00
C0
ENDCHAR
STARTCHAR uni0010
ENCODING 16
SWIDTH 500 0
DWIDTH 8 0
BBX 6 1 0 12
BITMAP
FC
ENDCHAR
STARTCHAR uni0011
ENCODING 17
SWIDTH 500 0
DWIDTH 8 0
BBX 6 1 0 9
BITMAP
FC
ENDCHAR
STARTCHAR uni0012
ENCODING 18
SWIDTH 500 0
DWIDTH 8 0
BBX 1 1 5 6
BITMAP
00
ENDCHAR
STARTCHAR uni0013
ENCODING 19
SWIDTH 500 0
DWIDTH 8 0
BBX 6 1 0 2
BITMAP
FC
ENDCHAR
STARTCHAR uni0014
ENCODING 20
SWIDTH 500 0
DWIDTH 8 0
BBX 6 1 0 -1
BITMAP
FC
ENDCHAR
STARTCHAR uni0015
ENCODING 21
SWIDTH 500 0
DWIDTH 8 0
BBX 2 14 2 -1
BITMAP
C0
00
40
40
00
C0
00
00
C0
00
40
40
00
C0
ENDCHAR
STARTCHAR uni0016
ENCODING 22
SWIDTH 500 0
DWIDTH 8 0
BBX 2 14 2 -1
BITMAP
C0
00
40
40
00
C0
00
00
C0
00
40
40
00
C0
ENDCHAR
STARTCHAR uni0017
ENCODING 23
SWIDTH 500 0
DWIDTH 8 0
BBX 2 6 2 7
BITMAP
C0
00
40
40
00
C0
ENDCHAR
STARTCHAR uni0018
ENCODING 24
SWIDTH 500 0
DWIDTH 8 0
BBX 2 6 2 -1
BITMAP
C0
00
40
40
00
C0
ENDCHAR
STARTCHAR uni0019
ENCODING 25
SWIDTH 500 0
DWIDTH 8 0
BBX 2 14 2 -1
BITMAP
C0
00
40
40
00
C0
00
00
C0
00
40
40
00
C0
ENDCHAR
STARTCHAR uni001A
ENCODING 26
SWIDTH 500 0
DWIDTH 8 0
BBX 6 12 0 -1
BITMAP
04
18
00
20
00
00
20
00
18
04
00
FC
ENDCHAR
STARTCHAR uni001B
ENCODING 27
SWIDTH 500 0
DWIDTH 8 0
BBX 6 12 0 -1
BITMAP
80
20
00
18
00
00
18
00
20
80
00
FC
ENDCHAR
STARTCHAR uni001C
ENCODING 28
SWIDTH 500 0
DWIDTH 8 0
BBX 6 7 0 1
BITMAP
FC
00
00
2C
00
28
48
ENDCHAR
STARTCHAR uni001D
ENCODING 29
SWIDTH 500 0
DWIDTH 8 0
BBX 6 10 0 1
BITMAP
04
08
00
FC
00
00
FC
00
40
80
ENDCHAR
STARTCHAR uni001E
ENCODING 30
SWIDTH 500 0
DWIDTH 8 0
BBX 6 12 0 -1
BITMAP
18
24
00
20
00
00
20
00
78
EC
00
40
ENDCHAR
STARTCHAR uni001F
ENCODING 31
SWIDTH 500 0
DWIDTH 8 0
BBX 1 1 3 6
BITMAP
00
ENDCHAR
STARTCHAR space
ENCODING 32
SWIDTH 500 0
DWIDTH 8 0
BBX 1 1 0 0
BITMAP
00
ENDCHAR
STARTCHAR exclam
ENCODING 33
SWIDTH 500 0
DWIDTH 8 0
BBX 2 10 2 1
BITMAP
40
40
00
C0
00
00
C0
00
00
40
ENDCHAR
STARTCHAR quotedbl
ENCODING 34
SWIDTH 500 0
DWIDTH 8 0
BBX 4 4 1 7
BITMAP
B0
B0
00
B0
ENDCHAR
STARTCHAR numbersign
ENCODING 35
SWIDTH 500 0
DWIDTH 8 0
BBX 6 10 0 1
BITMAP
58
58
00
FC
00
00
FC
00
58
58
ENDCHAR
STARTCHAR dollar
ENCODING 36
SWIDTH 500 0
DWIDTH 8 0
BBX 6 10 0 1
BITMAP
10
78
00
F0
00
00
34
00
78
10
ENDCHAR
STARTCHAR percent
ENCODING 37
SWIDTH 500 0
DWIDTH 8 0
BBX 6 10 0 1
BITMAP
44
E8
00
58
00
00
2C
00
5C
88
ENDCHAR
STARTCHAR ampersand
ENCODING 38
SWIDTH 500 0
DWIDTH 8 0
BBX 6 10 0 1
BITMAP
70
98
00
D8
00
00
DC
00
88
7C
ENDCHAR
STARTCHAR quotesingle
ENCODING 39
SWIDTH 500 0
DWIDTH 8 0
BBX 3 4 2 7
BITMAP
60
40
00
80
ENDCHAR
STARTCHAR parenleft
ENCODING 40
SWIDTH 500 0
DWIDTH 8 0
BBX 3 10 2 1
BITMAP
60
40
00
80
00
00
80
00
40
60
ENDCHAR
STARTCHAR parenright
ENCODING 41
SWIDTH 500 0
DWIDTH 8 0
BBX 3 10 2 1
BITMAP
80
40
00
60
00
00
60
00
40
80
ENDCHAR
STARTCHAR asterisk
ENCODING 42
SWIDTH 500 0
DWIDTH 8 0
BBX 4 8 1 2
BITMAP
90
00
70
00
00
70
00
90
ENDCHAR
STARTCHAR plus
ENCODING 43
SWIDTH 500 0
DWIDTH 8 0
BBX 2 8 2 2
BITMAP
40
00
C0
00
00
C0
00
40
ENDCHAR
STARTCHAR comma
ENCODING 44
SWIDTH 500 0
DWIDTH 8 0
BBX 3 4 1 -1
BITMAP
60
40
00
80
ENDCHAR
STARTCHAR hyphen
ENCODING 45
SWIDTH 500 0
DWIDTH 8 0
BBX 1 1 5 6
BITMAP
00
ENDCHAR
STARTCHAR period
ENCODING 46
SWIDTH 500 0
DWIDTH 8 0
BBX 2 2 2 1
BITMAP
C0
C0
ENDCHAR
STARTCHAR slash
ENCODING 47
SWIDTH 500 0
DWIDTH 8 0
BBX 6 10 0 1
BITMAP
04
08
00
18
00
00
20
00
40
80
ENDCHAR
STARTCHAR zero
ENCODING 48
SWIDTH 500 0
DWIDTH 8 0
BBX 6 10 0 1
BITMAP
38
48
00
C4
00
00
C4
00
48
38
ENDCHAR
STARTCHAR one
ENCODING 49
SWIDTH 500 0
DWIDTH 8 0
BBX 4 10 1 1
BITMAP
20
60
00
E0
00
00
60
00
20
F0
ENDCHAR
STARTCHAR two
ENCODING 50
SWIDTH 500 0
DWIDTH 8 0
BBX 6 10 0 1
BITMAP
78
84
00
04
00
00
60
00
80
FC
ENDCHAR
STARTCHAR three
ENCODING 51
SWIDTH 500 0
DWIDTH 8 0
BBX 6 10 0 1
BITMAP
FC
08
00
18
00
00
04
00
84
78
ENDCHAR
STARTCHAR four
ENCODING 52
SWIDTH 500 0
DWIDTH 8 0
BBX 6 10 0 1
BITMAP
18
18
00
38
00
00
FC
00
18
18
ENDCHAR
STARTCHAR five
ENCODING 53
SWIDTH 500 0
DWIDTH 8 0
BBX 6 10 0 1
BITMAP
FC
80
00
FC
00
00
04
00
84
78
ENDCHAR
STARTCHAR six
ENCODING 54
SWIDTH 500 0
DWIDTH 8 0
BBX 6 10 0 1
BITMAP
38
40
00
C0
00
00
C4
00
84
78
ENDCHAR
STARTCHAR seven
ENCODING 55
SWIDTH 500 0
DWIDTH 8 0
BBX 6 10 0 1
BITMAP
FC
04
00
0C
00
00
30
00
20
20
ENDCHAR
STARTCHAR eight
ENCODING 56
SWIDTH 500 0
DWIDTH 8 0
BBX 6 10 0 1
BITMAP
78
84
00
C4
00
00
C4
00
84
78
ENDCHAR
STARTCHAR nine
ENCODING 57
SWIDTH 500 0
DWIDTH 8 0
BBX 6 10 0 1
BITMAP
78
84
00
CC
00
00
04
00
08
78
ENDCHAR
STARTCHAR colon
ENCODING 58
SWIDTH 500 0
DWIDTH 8 0
BBX 2 9 2 1
BITMAP
C0
00
C0
00
00
00
00
C0
C0
ENDCHAR
STARTCHAR semicolon
ENCODING 59
SWIDTH 500 0
DWIDTH 8 0
BBX 3 11 1 -1
BITMAP
60
00
60
00
00
00
00
60
40
00
80
ENDCHAR
STARTCHAR less
ENCODING 60
SWIDTH 500 0
DWIDTH 8 0
BBX 4 10 2 1
BITMAP
10
60
00
80
00
00
80
00
60
10
ENDCHAR
STARTCHAR equal
ENCODING 61
SWIDTH 500 0
DWIDTH 8 0
BBX 6 4 0 4
BITMAP
FC
00
00
FC
ENDCHAR
STARTCHAR greater
ENCODING 62
SWIDTH 500 0
DWIDTH 8 0
BBX 5 10 0 1
BITMAP
80
20
00
18
00
00
18
00
20
80
ENDCHAR
STARTCHAR question
ENCODING 63
SWIDTH 500 0
DWIDTH 8 0
BBX 6 10 0 1
BITMAP
78
84
00
1C
00
00
30
00
00
10
ENDCHAR
STARTCHAR at
ENCODING 64
SWIDTH 500 0
DWIDTH 8 0
BBX 6 10 0 1
BITMAP
78
84
00
FC
00
00
FC
00
80
78
ENDCHAR
STARTCHAR A
ENCODING 65
SWIDTH 500 0
DWIDTH 8 0
BBX 6 10 0 1
BITMAP
10
38
00
4C
00
00
FC
00
84
84
ENDCHAR
STARTCHAR B
ENCODING 66
SWIDTH 500 0
DWIDTH 8 0
BBX 6 10 0 1
BITMAP
F8
44
00
44
00
00
44
00
44
F8
ENDCHAR
STARTCHAR C
ENCODING 67
SWIDTH 500 0
DWIDTH 8 0
BBX 6 10 0 1
BITMAP
38
44
00
C0
00
00
C0
00
44
38
ENDCHAR
STARTCHAR D
ENCODING 68
SWIDTH 500 0
DWIDTH 8 0
BBX 6 10 0 1
BITMAP
F8
48
00
44
00
00
44
00
48
F8
ENDCHAR
STARTCHAR E
ENCODING 69
SWIDTH 500 0
DWIDTH 8 0
BBX 6 10 0 1
BITMAP
FC
80
00
C0
00
00
C0
00
80
FC
ENDCHAR
STARTCHAR F
ENCODING 70
SWIDTH 500 0
DWIDTH 8 0
BBX 6 10 0 1
BITMAP
FC
80
00
C0
00
00
C0
00
80
80
ENDCHAR
STARTCHAR G
ENCODING 71
SWIDTH 500 0
DWIDTH 8 0
BBX 6 10 0 1
BITMAP
38
44
00
C0
00
00
DC
00
44
38
ENDCHAR
STARTCHAR H
ENCODING 72
SWIDTH 500 0
DWIDTH 8 0
BBX 6 10 0 1
BITMAP
84
84
00
C4
00
00
C4
00
84
84
ENDCHAR
STARTCHAR I
ENCODING 73
SWIDTH 500 0
DWIDTH 8 0
BBX 4 10 1 1
BITMAP
F0
20
00
60
00
00
60
00
20
F0
ENDCHAR
STARTCHAR J
ENCODING 74
SWIDTH 500 0
DWIDTH 8 0
BBX 6 10 0 1
BITMAP
1C
08
00
0C
00
00
0C
00
88
78
ENDCHAR
STARTCHAR K
ENCODING 75
SWIDTH 500 0
DWIDTH 8 0
BBX 6 10 0 1
BITMAP
84
98
00
F0
00
00
F0
00
98
84
ENDCHAR
STARTCHAR L
ENCODING 76
SWIDTH 500 0
DWIDTH 8 0
BBX 6 10 0 1
BITMAP
80
80
00
C0
00
00
C0
00
80
FC
ENDCHAR
STARTCHAR M
ENCODING 77
SWIDTH 500 0
DWIDTH 8 0
BBX 6 10 0 1
BITMAP
84
CC
00
FC
00
00
C4
00
84
84
ENDCHAR
STARTCHAR N
ENCODING 78
SWIDTH 500 0
DWIDTH 8 0
BBX 6 10 0 1
BITMAP
84
C4
00
E4
00
00
DC
00
8C
84
ENDCHAR
STARTCHAR O
ENCODING 79
SWIDTH 500 0
DWIDTH 8 0
BBX 6 10 0 1
BITMAP
78
84
00
C4
00
00
C4
00
84
78
ENDCHAR
STARTCHAR P
ENCODING 80
SWIDTH 500 0
DWIDTH 8 0
BBX 6 10 0 1
BITMAP
F8
84
00
C4
00
00
C0
00
80
80
ENDCHAR
STARTCHAR Q
ENCODING 81
SWIDTH 500 0
DWIDTH 8 0
BBX 6 10 0 1
BITMAP
78
84
00
C4
00
00
DC
00
88
7C
ENDCHAR
STARTCHAR R
ENCODING 82
SWIDTH 500 0
DWIDTH 8 0
BBX 6 10 0 1
BITMAP
F8
84
00
C4
00
00
D8
00
88
84
ENDCHAR
STARTCHAR S
ENCODING 83
SWIDTH 500 0
DWIDTH 8 0
BBX 6 10 0 1
BITMAP
78
84
00
C0
00
00
04
00
84
78
ENDCHAR
STARTCHAR T
ENCODING 84
SWIDTH 500 0
DWIDTH 8 0
BBX 6 10 0 1
BITMAP
FC
10
00
30
00
00
30
00
10
10
ENDCHAR
STARTCHAR U
ENCODING 85
SWIDTH 500 0
DWIDTH 8 0
BBX 6 10 0 1
BITMAP
84
84
00
C4
00
00
C4
00
84
78
ENDCHAR
STARTCHAR V
ENCODING 86
SWIDTH 500 0
DWIDTH 8 0
BBX 6 10 0 1
BITMAP
84
84
00
4C
00
00
38
00
38
10
ENDCHAR
STARTCHAR W
ENCODING 87
SWIDTH 500 0
DWIDTH 8 0
BBX 6 10 0 1
BITMAP
84
84
00
C4
00
00
F4
00
FC
48
ENDCHAR
STARTCHAR X
ENCODING 88
SWIDTH 500 0
DWIDTH 8 0
BBX 6 10 0 1
BITMAP
84
48
00
38
00
00
38
00
48
84
ENDCHAR
STARTCHAR Y
ENCODING 89
SWIDTH 500 0
DWIDTH 8 0
BBX 6 10 0 1
BITMAP
84
48
00
38
00
00
30
00
10
10
ENDCHAR
STARTCHAR Z
ENCODING 90
SWIDTH 500 0
DWIDTH 8 0
BBX 6 10 0 1
BITMAP
FC
08
00
18
00
00
20
00
40
FC
ENDCHAR
STARTCHAR bracketleft
ENCODING 91
SWIDTH 500 0
DWIDTH 8 0
BBX 3 10 2 1
BITMAP
E0
80
00
80
00
00
80
00
80
E0
ENDCHAR
STARTCHAR backslash
ENCODING 92
SWIDTH 500 0
DWIDTH 8 0
BBX 6 10 0 1
BITMAP
80
40
00
20
00
00
18
00
08
04
ENDCHAR
STARTCHAR bracketright
ENCODING 93
SWIDTH 500 0
DWIDTH 8 0
BBX 4 10 1 1
BITMAP
F0
30
00
30
00
00
30
00
30
F0
ENDCHAR
STARTCHAR asciicircum
ENCODING 94
SWIDTH 500 0
DWIDTH 8 0
BBX 5 4 1 7
BITMAP
20
70
00
98
ENDCHAR
STARTCHAR underscore
ENCODING 95
SWIDTH 500 0
DWIDTH 8 0
BBX 6 1 0 1
BITMAP
FC
ENDCHAR
STARTCHAR grave
ENCODING 96
SWIDTH 500 0
DWIDTH 8 0
BBX 3 4 2 7
BITMAP
C0
40
00
60
ENDCHAR
STARTCHAR a
ENCODING 97
SWIDTH 500 0
DWIDTH 8 0
BBX 6 7 0 1
BITMAP
7C
00
00
7C
00
8C
7C
ENDCHAR
STARTCHAR b
ENCODING 98
SWIDTH 500 0
DWIDTH 8 0
BBX 6 10 0 1
BITMAP
80
80
00
FC
00
00
C4
00
C4
F8
ENDCHAR
STARTCHAR c
ENCODING 99
SWIDTH 500 0
DWIDTH 8 0
BBX 6 7 0 1
BITMAP
7C
00
00
C0
00
80
7C
ENDCHAR
STARTCHAR d
ENCODING 100
SWIDTH 500 0
DWIDTH 8 0
BBX 6 10 0 1
BITMAP
04
04
00
7C
00
00
C4
00
8C
7C
ENDCHAR
STARTCHAR e
ENCODING 101
SWIDTH 500 0
DWIDTH 8 0
BBX 6 7 0 1
BITMAP
7C
00
00
FC
00
80
78
ENDCHAR
STARTCHAR f
ENCODING 102
SWIDTH 500 0
DWIDTH 8 0
BBX 4 10 2 1
BITMAP
60
90
00
80
00
00
80
00
80
80
ENDCHAR
STARTCHAR g
ENCODING 103
SWIDTH 500 0
DWIDTH 8 0
BBX 6 9 0 -1
BITMAP
7C
00
00
78
00
80
78
00
C4
ENDCHAR
STARTCHAR h
ENCODING 104
SWIDTH 500 0
DWIDTH 8 0
BBX 6 10 0 1
BITMAP
80
80
00
FC
00
00
C4
00
84
84
ENDCHAR
STARTCHAR i
ENCODING 105
SWIDTH 500 0
DWIDTH 8 0
BBX 4 10 1 1
BITMAP
20
00
00
60
00
00
60
00
20
F0
ENDCHAR
STARTCHAR j
ENCODING 106
SWIDTH 500 0
DWIDTH 8 0
BBX 6 12 0 -1
BITMAP
08
00
00
0C
00
00
0C
00
08
88
00
CC
ENDCHAR
STARTCHAR k
ENCODING 107
SWIDTH 500 0
DWIDTH 8 0
BBX 6 10 0 1
BITMAP
80
80
00
D8
00
00
E0
00
98
84
ENDCHAR
STARTCHAR l
ENCODING 108
SWIDTH 500 0
DWIDTH 8 0
BBX 3 10 2 1
BITMAP
C0
40
00
C0
00
00
C0
00
40
E0
ENDCHAR
STARTCHAR m
ENCODING 109
SWIDTH 500 0
DWIDTH 8 0
BBX 6 7 0 1
BITMAP
CC
00
00
F4
00
94
84
ENDCHAR
STARTCHAR n
ENCODING 110
SWIDTH 500 0
DWIDTH 8 0
BBX 6 7 0 1
BITMAP
FC
00
00
C4
00
84
84
ENDCHAR
STARTCHAR o
ENCODING 111
SWIDTH 500 0
DWIDTH 8 0
BBX 6 7 0 1
BITMAP
7C
00
00
C4
00
84
78
ENDCHAR
STARTCHAR p
ENCODING 112
SWIDTH 500 0
DWIDTH 8 0
BBX 6 9 0 -1
BITMAP
FC
00
00
C4
00
F8
80
00
C0
ENDCHAR
STARTCHAR q
ENCODING 113
SWIDTH 500 0
DWIDTH 8 0
BBX 6 9 0 -1
BITMAP
7C
00
00
CC
00
7C
04
00
04
ENDCHAR
STARTCHAR r
ENCODING 114
SWIDTH 500 0
DWIDTH 8 0
BBX 6 7 0 1
BITMAP
FC
00
00
40
00
40
40
ENDCHAR
STARTCHAR s
ENCODING 115
SWIDTH 500 0
DWIDTH 8 0
BBX 6 7 0 1
BITMAP
7C
00
00
7C
00
04
F8
ENDCHAR
STARTCHAR t
ENCODING 116
SWIDTH 500 0
DWIDTH 8 0
BBX 5 10 0 1
BITMAP
20
20
00
F8
00
00
20
00
28
18
ENDCHAR
STARTCHAR u
ENCODING 117
SWIDTH 500 0
DWIDTH 8 0
BBX 6 7 0 1
BITMAP
CC
00
00
CC
00
88
7C
ENDCHAR
STARTCHAR v
ENCODING 118
SWIDTH 500 0
DWIDTH 8 0
BBX 6 7 0 1
BITMAP
C4
00
00
4C
00
38
10
ENDCHAR
STARTCHAR w
ENCODING 119
SWIDTH 500 0
DWIDTH 8 0
BBX 6 7 0 1
BITMAP
C4
00
00
F4
00
FC
48
ENDCHAR
STARTCHAR x
ENCODING 120
SWIDTH 500 0
DWIDTH 8 0
BBX 6 7 0 1
BITMAP
CC
00
00
30
00
58
88
ENDCHAR
STARTCHAR y
ENCODING 121
SWIDTH 500 0
DWIDTH 8 0
BBX 6 9 0 -1
BITMAP
CC
00
00
DC
00
78
08
00
CC
ENDCHAR
STARTCHAR z
ENCODING 122
SWIDTH 500 0
DWIDTH 8 0
BBX 6 7 0 1
BITMAP
FC
00
00
38
00
20
FC
ENDCHAR
STARTCHAR braceleft
ENCODING 123
SWIDTH 500 0
DWIDTH 8 0
BBX 3 10 3 1
BITMAP
E0
80
00
C0
00
00
C0
00
80
E0
ENDCHAR
STARTCHAR bar
ENCODING 124
SWIDTH 500 0
DWIDTH 8 0
BBX 2 10 2 1
BITMAP
40
40
00
C0
00
00
C0
00
40
40
ENDCHAR
STARTCHAR braceright
ENCODING 125
SWIDTH 500 0
DWIDTH 8 0
BBX 4 10 0 1
BITMAP
E0
10
00
20
00
00
20
00
10
E0
ENDCHAR
STARTCHAR asciitilde
ENCODING 126
SWIDTH 500 0
DWIDTH 8 0
BBX 6 4 0 7
BITMAP
64
94
00
DC
ENDCHAR
STARTCHAR uni007F
ENCODING 127
SWIDTH 500 0
DWIDTH 8 0
BBX 5 12 0 -1
BITMAP
E0
90
00
F0
00
00
F8
00
20
20
00
20
ENDCHAR
STARTCHAR uni0080
ENCODING 128
SWIDTH 500 0
DWIDTH 8 0
BBX 6 12 0 -1
BITMAP
60
90
00
60
00
00
7C
00
14
14
00
34
ENDCHAR
STARTCHAR uni0081
ENCODING 129
SWIDTH 500 0
DWIDTH 8 0
BBX 6 12 0 -1
BITMAP
60
90
00
60
00
00
6C
00
18
08
00
0C
ENDCHAR
STARTCHAR uni0082
ENCODING 130
SWIDTH 500 0
DWIDTH 8 0
BBX 6 12 0 -1
BITMAP
60
90
00
60
00
00
7C
00
14
08
00
18
ENDCHAR
STARTCHAR uni0083
ENCODING 131
SWIDTH 500 0
DWIDTH 8 0
BBX 6 12 0 -1
BITMAP
60
90
00
60
00
00
7C
00
04
18
00
04
ENDCHAR
STARTCHAR uni0084
ENCODING 132
SWIDTH 500 0
DWIDTH 8 0
BBX 6 12 0 -1
BITMAP
60
90
00
60
00
00
6C
00
18
18
00
3C
ENDCHAR
STARTCHAR uni0085
ENCODING 133
SWIDTH 500 0
DWIDTH 8 0
BBX 6 12 0 -1
BITMAP
60
90
00
60
00
00
7C
00
10
18
00
04
ENDCHAR
STARTCHAR uni0086
ENCODING 134
SWIDTH 500 0
DWIDTH 8 0
BBX 6 12 0 -1
BITMAP
60
90
00
60
00
00
6C
00
18
18
00
34
ENDCHAR
STARTCHAR uni0087
ENCODING 135
SWIDTH 500 0
DWIDTH 8 0
BBX 6 12 0 -1
BITMAP
60
90
00
60
00
00
7C
00
04
08
00
18
ENDCHAR
STARTCHAR uni0088
ENCODING 136
SWIDTH 500 0
DWIDTH 8 0
BBX 6 12 0 -1
BITMAP
60
90
00
60
00
00
7C
00
14
18
00
34
ENDCHAR
STARTCHAR uni0089
ENCODING 137
SWIDTH 500 0
DWIDTH 8 0
BBX 6 12 0 -1
BITMAP
60
90
00
60
00
00
7C
00
14
1C
00
0C
ENDCHAR
STARTCHAR uni008A
ENCODING 138
SWIDTH 500 0
DWIDTH 8 0
BBX 6 12 0 -1
BITMAP
60
90
00
60
00
00
7C
00
14
1C
00
34
ENDCHAR
STARTCHAR uni008B
ENCODING 139
SWIDTH 500 0
DWIDTH 8 0
BBX 6 12 0 -1
BITMAP
60
90
00
60
00
00
7C
00
14
18
00
34
ENDCHAR
STARTCHAR uni008C
ENCODING 140
SWIDTH 500 0
DWIDTH 8 0
BBX 6 12 0 -1
BITMAP
60
90
00
60
00
00
7C
00
10
10
00
30
ENDCHAR
STARTCHAR uni008D
ENCODING 141
SWIDTH 500 0
DWIDTH 8 0
BBX 6 12 0 -1
BITMAP
60
90
00
60
00
00
7C
00
14
14
00
34
ENDCHAR
STARTCHAR uni008E
ENCODING 142
SWIDTH 500 0
DWIDTH 8 0
BBX 6 12 0 -1
BITMAP
60
90
00
60
00
00
7C
00
10
18
00
30
ENDCHAR
STARTCHAR uni008F
ENCODING 143
SWIDTH 500 0
DWIDTH 8 0
BBX 6 12 0 -1
BITMAP
60
90
00
60
00
00
7C
00
10
18
00
30
ENDCHAR
STARTCHAR uni0090
ENCODING 144
SWIDTH 500 0
DWIDTH 8 0
BBX 6 12 0 -1
BITMAP
60
90
00
70
00
00
DC
00
14
14
00
34
ENDCHAR
STARTCHAR uni0091
ENCODING 145
SWIDTH 500 0
DWIDTH 8 0
BBX 6 12 0 -1
BITMAP
60
90
00
70
00
00
CC
00
18
08
00
0C
ENDCHAR
STARTCHAR uni0092
ENCODING 146
SWIDTH 500 0
DWIDTH 8 0
BBX 6 12 0 -1
BITMAP
60
90
00
70
00
00
DC
00
14
08
00
18
ENDCHAR
STARTCHAR uni0093
ENCODING 147
SWIDTH 500 0
DWIDTH 8 0
BBX 6 12 0 -1
BITMAP
60
90
00
70
00
00
FC
00
04
18
00
04
ENDCHAR
STARTCHAR uni0094
ENCODING 148
SWIDTH 500 0
DWIDTH 8 0
BBX 6 12 0 -1
BITMAP
60
90
00
70
00
00
CC
00
18
18
00
3C
ENDCHAR
STARTCHAR uni0095
ENCODING 149
SWIDTH 500 0
DWIDTH 8 0
BBX 6 12 0 -1
BITMAP
60
90
00
70
00
00
FC
00
10
18
00
04
ENDCHAR
STARTCHAR uni0096
ENCODING 150
SWIDTH 500 0
DWIDTH 8 0
BBX 6 12 0 -1
BITMAP
60
90
00
70
00
00
CC
00
18
18
00
34
ENDCHAR
STARTCHAR uni0097
ENCODING 151
SWIDTH 500 0
DWIDTH 8 0
BBX 6 12 0 -1
BITMAP
60
90
00
70
00
00
FC
00
04
08
00
18
ENDCHAR
STARTCHAR uni0098
ENCODING 152
SWIDTH 500 0
DWIDTH 8 0
BBX 6 12 0 -1
BITMAP
60
90
00
70
00
00
DC
00
14
18
00
34
ENDCHAR
STARTCHAR uni0099
ENCODING 153
SWIDTH 500 0
DWIDTH 8 0
BBX 6 12 0 -1
BITMAP
60
90
00
70
00
00
DC
00
14
1C
00
0C
ENDCHAR
STARTCHAR uni009A
ENCODING 154
SWIDTH 500 0
DWIDTH 8 0
BBX 6 12 0 -1
BITMAP
60
90
00
70
00
00
DC
00
14
1C
00
34
ENDCHAR
STARTCHAR uni009B
ENCODING 155
SWIDTH 500 0
DWIDTH 8 0
BBX 6 12 0 -1
BITMAP
60
90
00
70
00
00
FC
00
14
18
00
34
ENDCHAR
STARTCHAR uni009C
ENCODING 156
SWIDTH 500 0
DWIDTH 8 0
BBX 6 12 0 -1
BITMAP
60
90
00
70
00
00
DC
00
10
10
00
30
ENDCHAR
STARTCHAR uni009D
ENCODING 157
SWIDTH 500 0
DWIDTH 8 0
BBX 6 12 0 -1
BITMAP
60
90
00
70
00
00
FC
00
14
14
00
34
ENDCHAR
STARTCHAR uni009E
ENCODING 158
SWIDTH 500 0
DWIDTH 8 0
BBX 6 12 0 -1
BITMAP
60
90
00
70
00
00
FC
00
10
18
00
30
ENDCHAR
STARTCHAR uni009F
ENCODING 159
SWIDTH 500 0
DWIDTH 8 0
BBX 6 12 0 -1
BITMAP
60
90
00
70
00
00
FC
00
10
18
00
30
ENDCHAR
STARTCHAR uni00A0
ENCODING 160
SWIDTH 500 0
DWIDTH 8 0
BBX 6 12 0 -1
BITMAP
60
90
00
F0
00
00
FC
00
14
14
00
34
ENDCHAR
STARTCHAR exclamdown
ENCODING 161
SWIDTH 500 0
DWIDTH 8 0
BBX 2 10 2 1
BITMAP
40
00
00
C0
00
00
C0
00
40
40
ENDCHAR
STARTCHAR cent
ENCODING 162
SWIDTH 500 0
DWIDTH 8 0
BBX 6 11 0 -1
BITMAP
10
00
7C
00
00
F0
00
94
78
00
30
ENDCHAR
STARTCHAR sterling
ENCODING 163
SWIDTH 500 0
DWIDTH 8 0
BBX 6 12 0 -1
BITMAP
18
24
00
20
00
00
20
00
78
EC
00
40
ENDCHAR
STARTCHAR currency
ENCODING 164
SWIDTH 500 0
DWIDTH 8 0
BBX 6 12 0 -1
BITMAP
60
90
00
F0
00
00
FC
00
18
18
00
3C
ENDCHAR
STARTCHAR yen
ENCODING 165
SWIDTH 500 0
DWIDTH 8 0
BBX 6 10 0 1
BITMAP
84
48
00
38
00
00
FC
00
10
10
ENDCHAR
STARTCHAR brokenbar
ENCODING 166
SWIDTH 500 0
DWIDTH 8 0
BBX 6 12 0 -1
BITMAP
60
90
00
F0
00
00
FC
00
18
18
00
34
ENDCHAR
STARTCHAR section
ENCODING 167
SWIDTH 500 0
DWIDTH 8 0
BBX 4 10 1 1
BITMAP
70
80
00
70
00
00
70
00
10
F0
ENDCHAR
STARTCHAR dieresis
ENCODING 168
SWIDTH 500 0
DWIDTH 8 0
BBX 6 8 0 2
BITMAP
84
00
7C
00
00
7C
00
84
ENDCHAR
STARTCHAR copyright
ENCODING 169
SWIDTH 500 0
DWIDTH 8 0
BBX 6 12 0 -1
BITMAP
38
48
00
FC
00
00
E4
00
9C
48
00
38
ENDCHAR
STARTCHAR ordfeminine
ENCODING 170
SWIDTH 500 0
DWIDTH 8 0
BBX 6 10 0 1
BITMAP
78
04
00
7C
00
00
7C
00
00
FC
ENDCHAR
STARTCHAR guillemotleft
ENCODING 171
SWIDTH 500 0
DWIDTH 8 0
BBX 5 10 1 1
BITMAP
28
50
00
B0
00
00
B0
00
50
28
ENDCHAR
STARTCHAR logicalnot
ENCODING 172
SWIDTH 500 0
DWIDTH 8 0
BBX 6 12 0 -1
BITMAP
60
90
00
F0
00
00
FC
00
10
10
00
30
ENDCHAR
STARTCHAR uni00AD
ENCODING 173
SWIDTH 500 0
DWIDTH 8 0
BBX 6 12 0 -1
BITMAP
60
90
00
F0
00
00
FC
00
14
14
00
34
ENDCHAR
STARTCHAR registered
ENCODING 174
SWIDTH 500 0
DWIDTH 8 0
BBX 6 12 0 -1
BITMAP
60
90
00
F0
00
00
FC
00
10
18
00
30
ENDCHAR
STARTCHAR macron
ENCODING 175
SWIDTH 500 0
DWIDTH 8 0
BBX 6 12 0 -1
BITMAP
60
90
00
F0
00
00
FC
00
10
18
00
30
ENDCHAR
STARTCHAR degree
ENCODING 176
SWIDTH 500 0
DWIDTH 8 0
BBX 4 4 1 7
BITMAP
70
90
00
70
ENDCHAR
STARTCHAR plusminus
ENCODING 177
SWIDTH 500 0
DWIDTH 8 0
BBX 6 9 0 1
BITMAP
10
00
30
00
00
30
00
10
FC
ENDCHAR
STARTCHAR uni00B2
ENCODING 178
SWIDTH 500 0
DWIDTH 8 0
BBX 4 6 1 7
BITMAP
70
00
90
30
00
40
ENDCHAR
STARTCHAR uni00B3
ENCODING 179
SWIDTH 500 0
DWIDTH 8 0
BBX 5 6 1 7
BITMAP
F8
00
10
30
00
18
ENDCHAR
STARTCHAR acute
ENCODING 180
SWIDTH 500 0
DWIDTH 8 0
BBX 6 12 0 -1
BITMAP
E0
90
00
E0
00
00
EC
00
18
18
00
3C
ENDCHAR
STARTCHAR uni00B5
ENCODING 181
SWIDTH 500 0
DWIDTH 8 0
BBX 5 9 1 -1
BITMAP
88
00
00
88
00
D8
F8
00
80
ENDCHAR
STARTCHAR paragraph
ENCODING 182
SWIDTH 500 0
DWIDTH 8 0
BBX 6 10 0 1
BITMAP
7C
DC
00
DC
00
00
1C
00
1C
1C
ENDCHAR
STARTCHAR periodcentered
ENCODING 183
SWIDTH 500 0
DWIDTH 8 0
BBX 2 1 2 7
BITMAP
C0
ENDCHAR
STARTCHAR cedilla
ENCODING 184
SWIDTH 500 0
DWIDTH 8 0
BBX 6 12 0 -1
BITMAP
E0
90
00
E0
00
00
FC
00
14
18
00
34
ENDCHAR
STARTCHAR uni00B9
ENCODING 185
SWIDTH 500 0
DWIDTH 8 0
BBX 2 6 2 7
BITMAP
C0
00
C0
40
00
C0
ENDCHAR
STARTCHAR ordmasculine
ENCODING 186
SWIDTH 500 0
DWIDTH 8 0
BBX 6 10 0 1
BITMAP
78
84
00
C4
00
00
7C
00
00
FC
ENDCHAR
STARTCHAR guillemotright
ENCODING 187
SWIDTH 500 0
DWIDTH 8 0
BBX 6 10 0 1
BITMAP
90
58
00
2C
00
00
2C
00
58
90
ENDCHAR
STARTCHAR onequarter
ENCODING 188
SWIDTH 500 0
DWIDTH 8 0
BBX 6 12 0 -1
BITMAP
40
C8
00
58
00
00
2C
00
58
98
00
3C
ENDCHAR
STARTCHAR onehalf
ENCODING 189
SWIDTH 500 0
DWIDTH 8 0
BBX 6 12 0 -1
BITMAP
40
C8
00
58
00
00
3C
00
74
88
00
18
ENDCHAR
STARTCHAR threequarters
ENCODING 190
SWIDTH 500 0
DWIDTH 8 0
BBX 6 12 0 -1
BITMAP
E0
90
00
E0
00
00
FC
00
10
18
00
30
ENDCHAR
STARTCHAR questiondown
ENCODING 191
SWIDTH 500 0
DWIDTH 8 0
BBX 6 10 0 1
BITMAP
10
00
00
30
00
00
60
00
84
78
ENDCHAR
STARTCHAR Agrave
ENCODING 192
SWIDTH 500 0
DWIDTH 8 0
BBX 6 12 0 1
BITMAP
30
00
18
10
00
38
00
00
FC
00
84
84
ENDCHAR
STARTCHAR Aacute
ENCODING 193
SWIDTH 500 0
DWIDTH 8 0
BBX 6 12 0 1
BITMAP
38
00
60
10
00
38
00
00
FC
00
84
84
ENDCHAR
STARTCHAR Acircumflex
ENCODING 194
SWIDTH 500 0
DWIDTH 8 0
BBX 6 12 0 1
BITMAP
38
00
48
10
00
38
00
00
FC
00
84
84
ENDCHAR
STARTCHAR Atilde
ENCODING 195
SWIDTH 500 0
DWIDTH 8 0
BBX 6 12 0 1
BITMAP
34
00
58
10
00
38
00
00
FC
00
84
84
ENDCHAR
STARTCHAR Adieresis
ENCODING 196
SWIDTH 500 0
DWIDTH 8 0
BBX 6 12 0 1
BITMAP
4C
00
00
10
00
38
00
00
FC
00
84
84
ENDCHAR
STARTCHAR Aring
ENCODING 197
SWIDTH 500 0
DWIDTH 8 0
BBX 6 12 0 1
BITMAP
38
00
48
38
00
38
00
00
FC
00
84
84
ENDCHAR
STARTCHAR AE
ENCODING 198
SWIDTH 500 0
DWIDTH 8 0
BBX 6 10 0 1
BITMAP
3C
70
00
F0
00
00
F0
00
90
9C
ENDCHAR
STARTCHAR Ccedilla
ENCODING 199
SWIDTH 500 0
DWIDTH 8 0
BBX 6 12 0 -1
BITMAP
38
44
00
C0
00
00
C0
00
44
38
00
18
ENDCHAR
STARTCHAR Egrave
ENCODING 200
SWIDTH 500 0
DWIDTH 8 0
BBX 6 12 0 1
BITMAP
60
00
18
FC
00
C0
00
00
C0
00
80
FC
ENDCHAR
STARTCHAR Eacute
ENCODING 201
SWIDTH 500 0
DWIDTH 8 0
BBX 6 12 0 1
BITMAP
1C
00
30
FC
00
C0
00
00
C0
00
80
FC
ENDCHAR
STARTCHAR Ecircumflex
ENCODING 202
SWIDTH 500 0
DWIDTH 8 0
BBX 6 12 0 1
BITMAP
38
00
48
FC
00
C0
00
00
C0
00
80
FC
ENDCHAR
STARTCHAR Edieresis
ENCODING 203
SWIDTH 500 0
DWIDTH 8 0
BBX 6 12 0 1
BITMAP
4C
00
00
FC
00
C0
00
00
C0
00
80
FC
ENDCHAR
STARTCHAR Igrave
ENCODING 204
SWIDTH 500 0
DWIDTH 8 0
BBX 4 12 1 1
BITMAP
60
00
30
F0
00
60
00
00
60
00
20
F0
ENDCHAR
STARTCHAR Iacute
ENCODING 205
SWIDTH 500 0
DWIDTH 8 0
BBX 4 12 1 1
BITMAP
70
00
C0
F0
00
60
00
00
60
00
20
F0
ENDCHAR
STARTCHAR Icircumflex
ENCODING 206
SWIDTH 500 0
DWIDTH 8 0
BBX 4 12 1 1
BITMAP
70
00
90
F0
00
60
00
00
60
00
20
F0
ENDCHAR
STARTCHAR Idieresis
ENCODING 207
SWIDTH 500 0
DWIDTH 8 0
BBX 5 12 1 1
BITMAP
98
00
00
F0
00
60
00
00
60
00
20
F0
ENDCHAR
STARTCHAR Eth
ENCODING 208
SWIDTH 500 0
DWIDTH 8 0
BBX 6 12 0 -1
BITMAP
E0
90
00
F0
00
00
FC
00
14
14
00
34
ENDCHAR
STARTCHAR Ntilde
ENCODING 209
SWIDTH 500 0
DWIDTH 8 0
BBX 6 12 0 1
BITMAP
34
00
58
C4
00
E4
00
00
DC
00
8C
84
ENDCHAR
STARTCHAR Ograve
ENCODING 210
SWIDTH 500 0
DWIDTH 8 0
BBX 6 12 0 1
BITMAP
30
00
18
78
00
C4
00
00
C4
00
84
78
ENDCHAR
STARTCHAR Oacute
ENCODING 211
SWIDTH 500 0
DWIDTH 8 0
BBX 6 12 0 1
BITMAP
38
00
60
78
00
C4
00
00
C4
00
84
78
ENDCHAR
STARTCHAR Ocircumflex
ENCODING 212
SWIDTH 500 0
DWIDTH 8 0
BBX 6 12 0 1
BITMAP
38
00
48
78
00
C4
00
00
C4
00
84
78
ENDCHAR
STARTCHAR Otilde
ENCODING 213
SWIDTH 500 0
DWIDTH 8 0
BBX 6 12 0 1
BITMAP
6C
00
98
78
00
C4
00
00
C4
00
84
78
ENDCHAR
STARTCHAR Odieresis
ENCODING 214
SWIDTH 500 0
DWIDTH 8 0
BBX 6 12 0 1
BITMAP
4C
00
00
78
00
C4
00
00
C4
00
84
78
ENDCHAR
STARTCHAR multiply
ENCODING 215
SWIDTH 500 0
DWIDTH 8 0
BBX 6 10 0 1
BITMAP
7C
90
00
F0
00
00
F0
00
90
7C
ENDCHAR
STARTCHAR Oslash
ENCODING 216
SWIDTH 500 0
DWIDTH 8 0
BBX 6 14 0 -1
BITMAP
04
00
78
8C
00
DC
00
00
E4
00
C4
78
00
C0
ENDCHAR
STARTCHAR Ugrave
ENCODING 217
SWIDTH 500 0
DWIDTH 8 0
BBX 6 12 0 1
BITMAP
60
00
18
84
00
C4
00
00
C4
00
84
78
ENDCHAR
STARTCHAR Uacute
ENCODING 218
SWIDTH 500 0
DWIDTH 8 0
BBX 6 12 0 1
BITMAP
1C
00
30
84
00
C4
00
00
C4
00
84
78
ENDCHAR
STARTCHAR Ucircumflex
ENCODING 219
SWIDTH 500 0
DWIDTH 8 0
BBX 6 12 0 1
BITMAP
30
00
38
84
00
C4
00
00
C4
00
84
78
ENDCHAR
STARTCHAR Udieresis
ENCODING 220
SWIDTH 500 0
DWIDTH 8 0
BBX 6 12 0 1
BITMAP
4C
00
00
84
00
C4
00
00
C4
00
84
78
ENDCHAR
STARTCHAR Yacute
ENCODING 221
SWIDTH 500 0
DWIDTH 8 0
BBX 6 12 0 1
BITMAP
4C
00
00
84
00
4C
00
00
30
00
10
10
ENDCHAR
STARTCHAR Thorn
ENCODING 222
SWIDTH 500 0
DWIDTH 8 0
BBX 6 12 0 -1
BITMAP
E0
90
00
F0
00
00
FC
00
10
18
00
30
ENDCHAR
STARTCHAR germandbls
ENCODING 223
SWIDTH 500 0
DWIDTH 8 0
BBX 6 12 0 -1
BITMAP
38
48
00
CC
00
00
CC
00
E4
98
00
C0
ENDCHAR
STARTCHAR agrave
ENCODING 224
SWIDTH 500 0
DWIDTH 8 0
BBX 6 10 0 1
BITMAP
30
18
00
7C
00
00
7C
00
8C
7C
ENDCHAR
STARTCHAR aacute
ENCODING 225
SWIDTH 500 0
DWIDTH 8 0
BBX 6 10 0 1
BITMAP
18
60
00
7C
00
00
7C
00
8C
7C
ENDCHAR
STARTCHAR acircumflex
ENCODING 226
SWIDTH 500 0
DWIDTH 8 0
BBX 6 12 0 1
BITMAP
38
00
48
00
00
7C
00
00
7C
00
8C
7C
ENDCHAR
STARTCHAR atilde
ENCODING 227
SWIDTH 500 0
DWIDTH 8 0
BBX 6 12 0 1
BITMAP
34
00
58
00
00
7C
00
00
7C
00
8C
7C
ENDCHAR
STARTCHAR adieresis
ENCODING 228
SWIDTH 500 0
DWIDTH 8 0
BBX 6 10 0 1
BITMAP
48
00
00
7C
00
00
7C
00
8C
7C
ENDCHAR
STARTCHAR aring
ENCODING 229
SWIDTH 500 0
DWIDTH 8 0
BBX 6 12 0 1
BITMAP
38
00
48
38
00
7C
00
00
7C
00
8C
7C
ENDCHAR
STARTCHAR ae
ENCODING 230
SWIDTH 500 0
DWIDTH 8 0
BBX 6 7 0 1
BITMAP
7C
00
00
7C
00
90
7C
ENDCHAR
STARTCHAR ccedilla
ENCODING 231
SWIDTH 500 0
DWIDTH 8 0
BBX 6 9 0 -1
BITMAP
7C
00
00
C0
00
84
78
00
18
ENDCHAR
STARTCHAR egrave
ENCODING 232
SWIDTH 500 0
DWIDTH 8 0
BBX 6 10 0 1
BITMAP
30
18
00
7C
00
00
FC
00
80
78
ENDCHAR
STARTCHAR eacute
ENCODING 233
SWIDTH 500 0
DWIDTH 8 0
BBX 6 10 0 1
BITMAP
18
60
00
7C
00
00
FC
00
80
78
ENDCHAR
STARTCHAR ecircumflex
ENCODING 234
SWIDTH 500 0
DWIDTH 8 0
BBX 6 12 0 1
BITMAP
38
00
48
00
00
7C
00
00
FC
00
80
78
ENDCHAR
STARTCHAR edieresis
ENCODING 235
SWIDTH 500 0
DWIDTH 8 0
BBX 6 10 0 1
BITMAP
48
00
00
7C
00
00
FC
00
80
78
ENDCHAR
STARTCHAR igrave
ENCODING 236
SWIDTH 500 0
DWIDTH 8 0
BBX 4 10 1 1
BITMAP
C0
30
00
60
00
00
60
00
20
F0
ENDCHAR
STARTCHAR iacute
ENCODING 237
SWIDTH 500 0
DWIDTH 8 0
BBX 4 10 1 1
BITMAP
30
C0
00
60
00
00
60
00
20
F0
ENDCHAR
STARTCHAR icircumflex
ENCODING 238
SWIDTH 500 0
DWIDTH 8 0
BBX 4 12 1 1
BITMAP
70
00
90
00
00
60
00
00
60
00
20
F0
ENDCHAR
STARTCHAR idieresis
ENCODING 239
SWIDTH 500 0
DWIDTH 8 0
BBX 4 10 1 1
BITMAP
90
00
00
60
00
00
60
00
20
F0
ENDCHAR
STARTCHAR eth
ENCODING 240
SWIDTH 500 0
DWIDTH 8 0
BBX 6 12 0 -1
BITMAP
F0
80
00
E0
00
00
DC
00
14
14
00
34
ENDCHAR
STARTCHAR ntilde
ENCODING 241
SWIDTH 500 0
DWIDTH 8 0
BBX 6 12 0 1
BITMAP
6C
00
98
00
00
FC
00
00
C4
00
84
84
ENDCHAR
STARTCHAR ograve
ENCODING 242
SWIDTH 500 0
DWIDTH 8 0
BBX 6 10 0 1
BITMAP
30
18
00
7C
00
00
C4
00
84
78
ENDCHAR
STARTCHAR oacute
ENCODING 243
SWIDTH 500 0
DWIDTH 8 0
BBX 6 10 0 1
BITMAP
18
60
00
7C
00
00
C4
00
84
78
ENDCHAR
STARTCHAR ocircumflex
ENCODING 244
SWIDTH 500 0
DWIDTH 8 0
BBX 6 12 0 1
BITMAP
38
00
48
00
00
7C
00
00
C4
00
84
78
ENDCHAR
STARTCHAR otilde
ENCODING 245
SWIDTH 500 0
DWIDTH 8 0
BBX 6 12 0 1
BITMAP
6C
00
98
00
00
7C
00
00
C4
00
84
78
ENDCHAR
STARTCHAR odieresis
ENCODING 246
SWIDTH 500 0
DWIDTH 8 0
BBX 6 10 0 1
BITMAP
48
00
00
7C
00
00
C4
00
84
78
ENDCHAR
STARTCHAR divide
ENCODING 247
SWIDTH 500 0
DWIDTH 8 0
BBX 6 7 0 1
BITMAP
7C
00
00
FC
00
90
7C
ENDCHAR
STARTCHAR oslash
ENCODING 248
SWIDTH 500 0
DWIDTH 8 0
BBX 6 11 0 -1
BITMAP
04
00
7C
00
00
F4
00
E4
78
00
C0
ENDCHAR
STARTCHAR ugrave
ENCODING 249
SWIDTH 500 0
DWIDTH 8 0
BBX 6 10 0 1
BITMAP
60
18
00
CC
00
00
CC
00
88
7C
ENDCHAR
STARTCHAR uacute
ENCODING 250
SWIDTH 500 0
DWIDTH 8 0
BBX 6 10 0 1
BITMAP
18
60
00
CC
00
00
CC
00
88
7C
ENDCHAR
STARTCHAR ucircumflex
ENCODING 251
SWIDTH 500 0
DWIDTH 8 0
BBX 6 12 0 1
BITMAP
38
00
48
00
00
CC
00
00
CC
00
88
7C
ENDCHAR
STARTCHAR udieresis
ENCODING 252
SWIDTH 500 0
DWIDTH 8 0
BBX 6 10 0 1
BITMAP
48
00
00
CC
00
00
CC
00
88
7C
ENDCHAR
STARTCHAR yacute
ENCODING 253
SWIDTH 500 0
DWIDTH 8 0
BBX 6 12 0 -1
BITMAP
48
00
00
CC
00
00
DC
00
78
08
00
CC
ENDCHAR
STARTCHAR thorn
ENCODING 254
SWIDTH 500 0
DWIDTH 8 0
BBX 6 12 0 -1
BITMAP
F0
80
00
E0
00
00
FC
00
10
18
00
30
ENDCHAR
STARTCHAR ydieresis
ENCODING 255
SWIDTH 500 0
DWIDTH 8 0
BBX 6 10 0 1
BITMAP
FC
84
00
C4
00
00
C4
00
84
FC
ENDCHAR
STARTCHAR NameMe.320
ENCODING 1025
SWIDTH 500 0
DWIDTH 8 0
BBX 6 12 0 1
BITMAP
4C
00
00
FC
00
C0
00
00
C0
00
80
FC
ENDCHAR
STARTCHAR afii10034
ENCODING 1040
SWIDTH 500 0
DWIDTH 8 0
BBX 6 10 0 1
BITMAP
1C
24
00
44
00
00
FC
00
84
84
ENDCHAR
STARTCHAR NameMe.257
ENCODING 1041
SWIDTH 500 0
DWIDTH 8 0
BBX 6 10 0 1
BITMAP
FC
80
00
C0
00
00
C4
00
84
F8
ENDCHAR
STARTCHAR NameMe.258
ENCODING 1042
SWIDTH 500 0
DWIDTH 8 0
BBX 6 10 0 1
BITMAP
F8
88
00
CC
00
00
C4
00
84
F8
ENDCHAR
STARTCHAR NameMe.259
ENCODING 1043
SWIDTH 500 0
DWIDTH 8 0
BBX 6 10 0 1
BITMAP
FC
80
00
C0
00
00
C0
00
80
80
ENDCHAR
STARTCHAR NameMe.260
ENCODING 1044
SWIDTH 500 0
DWIDTH 8 0
BBX 6 12 0 -1
BITMAP
38
48
00
4C
00
00
4C
00
48
FC
00
C4
ENDCHAR
STARTCHAR NameMe.261
ENCODING 1045
SWIDTH 500 0
DWIDTH 8 0
BBX 6 10 0 1
BITMAP
FC
80
00
C0
00
00
C0
00
80
FC
ENDCHAR
STARTCHAR NameMe.262
ENCODING 1046
SWIDTH 500 0
DWIDTH 8 0
BBX 6 10 0 1
BITMAP
94
94
00
7C
00
00
7C
00
94
94
ENDCHAR
STARTCHAR NameMe.263
ENCODING 1047
SWIDTH 500 0
DWIDTH 8 0
BBX 6 10 0 1
BITMAP
78
84
00
04
00
00
04
00
84
78
ENDCHAR
STARTCHAR NameMe.264
ENCODING 1048
SWIDTH 500 0
DWIDTH 8 0
BBX 6 10 0 1
BITMAP
84
8C
00
DC
00
00
E4
00
C4
84
ENDCHAR
STARTCHAR NameMe.265
ENCODING 1049
SWIDTH 500 0
DWIDTH 8 0
BBX 6 12 0 1
BITMAP
38
00
94
8C
00
DC
00
00
E4
00
C4
84
ENDCHAR
STARTCHAR NameMe.266
ENCODING 1050
SWIDTH 500 0
DWIDTH 8 0
BBX 6 10 0 1
BITMAP
84
84
00
DC
00
00
DC
00
84
84
ENDCHAR
STARTCHAR NameMe.267
ENCODING 1051
SWIDTH 500 0
DWIDTH 8 0
BBX 6 10 0 1
BITMAP
1C
24
00
44
00
00
C4
00
84
84
ENDCHAR
STARTCHAR NameMe.268
ENCODING 1052
SWIDTH 500 0
DWIDTH 8 0
BBX 6 10 0 1
BITMAP
84
CC
00
FC
00
00
F4
00
84
84
ENDCHAR
STARTCHAR NameMe.269
ENCODING 1053
SWIDTH 500 0
DWIDTH 8 0
BBX 6 10 0 1
BITMAP
84
84
00
C4
00
00
FC
00
84
84
ENDCHAR
STARTCHAR NameMe.270
ENCODING 1054
SWIDTH 500 0
DWIDTH 8 0
BBX 6 10 0 1
BITMAP
78
84
00
C4
00
00
C4
00
84
78
ENDCHAR
STARTCHAR NameMe.271
ENCODING 1055
SWIDTH 500 0
DWIDTH 8 0
BBX 6 10 0 1
BITMAP
FC
84
00
C4
00
00
C4
00
84
84
ENDCHAR
STARTCHAR NameMe.272
ENCODING 1056
SWIDTH 500 0
DWIDTH 8 0
BBX 6 10 0 1
BITMAP
F8
84
00
C4
00
00
FC
00
80
80
ENDCHAR
STARTCHAR NameMe.273
ENCODING 1057
SWIDTH 500 0
DWIDTH 8 0
BBX 6 10 0 1
BITMAP
7C
80
00
C0
00
00
C0
00
80
7C
ENDCHAR
STARTCHAR NameMe.274
ENCODING 1058
SWIDTH 500 0
DWIDTH 8 0
BBX 6 10 0 1
BITMAP
FC
94
00
30
00
00
30
00
10
10
ENDCHAR
STARTCHAR NameMe.275
ENCODING 1059
SWIDTH 500 0
DWIDTH 8 0
BBX 6 10 0 1
BITMAP
84
84
00
C4
00
00
04
00
84
78
ENDCHAR
STARTCHAR NameMe.276
ENCODING 1060
SWIDTH 500 0
DWIDTH 8 0
BBX 6 10 0 1
BITMAP
10
78
00
F4
00
00
F4
00
78
10
ENDCHAR
STARTCHAR NameMe.277
ENCODING 1061
SWIDTH 500 0
DWIDTH 8 0
BBX 6 10 0 1
BITMAP
84
84
00
38
00
00
38
00
84
84
ENDCHAR
STARTCHAR NameMe.278
ENCODING 1062
SWIDTH 500 0
DWIDTH 8 0
BBX 6 12 0 -1
BITMAP
88
88
00
CC
00
00
CC
00
88
FC
00
04
ENDCHAR
STARTCHAR NameMe.279
ENCODING 1063
SWIDTH 500 0
DWIDTH 8 0
BBX 6 10 0 1
BITMAP
84
84
00
C4
00
00
04
00
04
04
ENDCHAR
STARTCHAR NameMe.280
ENCODING 1064
SWIDTH 500 0
DWIDTH 8 0
BBX 6 10 0 1
BITMAP
94
94
00
F4
00
00
F4
00
94
FC
ENDCHAR
STARTCHAR NameMe.281
ENCODING 1065
SWIDTH 500 0
DWIDTH 8 0
BBX 6 12 0 -1
BITMAP
94
94
00
F4
00
00
F4
00
94
FC
00
04
ENDCHAR
STARTCHAR NameMe.282
ENCODING 1066
SWIDTH 500 0
DWIDTH 8 0
BBX 6 10 0 1
BITMAP
C0
C0
00
40
00
00
44
00
44
78
ENDCHAR
STARTCHAR NameMe.283
ENCODING 1067
SWIDTH 500 0
DWIDTH 8 0
BBX 6 10 0 1
BITMAP
84
84
00
C4
00
00
DC
00
9C
F4
ENDCHAR
STARTCHAR NameMe.284
ENCODING 1068
SWIDTH 500 0
DWIDTH 8 0
BBX 6 10 0 1
BITMAP
80
80
00
C0
00
00
C4
00
84
F8
ENDCHAR
STARTCHAR NameMe.285
ENCODING 1069
SWIDTH 500 0
DWIDTH 8 0
BBX 6 10 0 1
BITMAP
F8
04
00
04
00
00
04
00
04
F8
ENDCHAR
STARTCHAR NameMe.286
ENCODING 1070
SWIDTH 500 0
DWIDTH 8 0
BBX 6 10 0 1
BITMAP
98
E4
00
E4
00
00
E4
00
E4
98
ENDCHAR
STARTCHAR NameMe.287
ENCODING 1071
SWIDTH 500 0
DWIDTH 8 0
BBX 6 10 0 1
BITMAP
7C
84
00
C4
00
00
24
00
44
84
ENDCHAR
STARTCHAR NameMe.288
ENCODING 1072
SWIDTH 500 0
DWIDTH 8 0
BBX 6 7 0 1
BITMAP
78
00
00
7C
00
88
7C
ENDCHAR
STARTCHAR NameMe.289
ENCODING 1073
SWIDTH 500 0
DWIDTH 8 0
BBX 6 10 0 1
BITMAP
7C
20
00
38
00
00
C4
00
84
78
ENDCHAR
STARTCHAR NameMe.290
ENCODING 1074
SWIDTH 500 0
DWIDTH 8 0
BBX 6 10 0 1
BITMAP
70
98
00
F0
00
00
C4
00
84
78
ENDCHAR
STARTCHAR NameMe.291
ENCODING 1075
SWIDTH 500 0
DWIDTH 8 0
BBX 6 7 0 1
BITMAP
7C
00
00
7C
00
80
7C
ENDCHAR
STARTCHAR NameMe.292
ENCODING 1076
SWIDTH 500 0
DWIDTH 8 0
BBX 6 10 0 1
BITMAP
78
84
00
04
00
00
C4
00
84
78
ENDCHAR
STARTCHAR NameMe.293
ENCODING 1077
SWIDTH 500 0
DWIDTH 8 0
BBX 6 7 0 1
BITMAP
7C
00
00
FC
00
80
78
ENDCHAR
STARTCHAR NameMe.294
ENCODING 1078
SWIDTH 500 0
DWIDTH 8 0
BBX 6 7 0 1
BITMAP
F4
00
00
38
00
78
94
ENDCHAR
STARTCHAR NameMe.295
ENCODING 1079
SWIDTH 500 0
DWIDTH 8 0
BBX 6 7 0 1
BITMAP
7C
00
00
3C
00
84
78
ENDCHAR
STARTCHAR NameMe.296
ENCODING 1080
SWIDTH 500 0
DWIDTH 8 0
BBX 6 7 0 1
BITMAP
CC
00
00
CC
00
98
7C
ENDCHAR
STARTCHAR NameMe.297
ENCODING 1081
SWIDTH 500 0
DWIDTH 8 0
BBX 6 9 0 1
BITMAP
10
00
CC
00
00
CC
00
98
7C
ENDCHAR
STARTCHAR NameMe.298
ENCODING 1082
SWIDTH 500 0
DWIDTH 8 0
BBX 6 7 0 1
BITMAP
C4
00
00
F0
00
98
84
ENDCHAR
STARTCHAR NameMe.299
ENCODING 1083
SWIDTH 500 0
DWIDTH 8 0
BBX 6 7 0 1
BITMAP
3C
00
00
24
00
24
C4
ENDCHAR
STARTCHAR NameMe.300
ENCODING 1084
SWIDTH 500 0
DWIDTH 8 0
BBX 6 7 0 1
BITMAP
C4
00
00
FC
00
94
84
ENDCHAR
STARTCHAR NameMe.301
ENCODING 1085
SWIDTH 500 0
DWIDTH 8 0
BBX 6 7 0 1
BITMAP
C4
00
00
FC
00
84
84
ENDCHAR
STARTCHAR NameMe.302
ENCODING 1086
SWIDTH 500 0
DWIDTH 8 0
BBX 6 7 0 1
BITMAP
7C
00
00
C4
00
84
78
ENDCHAR
STARTCHAR NameMe.303
ENCODING 1087
SWIDTH 500 0
DWIDTH 8 0
BBX 6 7 0 1
BITMAP
F8
00
00
CC
00
88
8C
ENDCHAR
STARTCHAR NameMe.304
ENCODING 1088
SWIDTH 500 0
DWIDTH 8 0
BBX 6 9 0 -1
BITMAP
FC
00
00
C4
00
F8
80
00
C0
ENDCHAR
STARTCHAR NameMe.305
ENCODING 1089
SWIDTH 500 0
DWIDTH 8 0
BBX 6 7 0 1
BITMAP
7C
00
00
C0
00
84
78
ENDCHAR
STARTCHAR NameMe.306
ENCODING 1090
SWIDTH 500 0
DWIDTH 8 0
BBX 6 7 0 1
BITMAP
FC
00
00
30
00
10
10
ENDCHAR
STARTCHAR NameMe.307
ENCODING 1091
SWIDTH 500 0
DWIDTH 8 0
BBX 6 9 0 -1
BITMAP
C4
00
00
C4
00
7C
04
00
FC
ENDCHAR
STARTCHAR NameMe.308
ENCODING 1092
SWIDTH 500 0
DWIDTH 8 0
BBX 6 7 0 1
BITMAP
30
00
00
F4
00
78
10
ENDCHAR
STARTCHAR NameMe.309
ENCODING 1093
SWIDTH 500 0
DWIDTH 8 0
BBX 6 7 0 1
BITMAP
C4
00
00
30
00
38
84
ENDCHAR
STARTCHAR NameMe.310
ENCODING 1094
SWIDTH 500 0
DWIDTH 8 0
BBX 6 9 0 -1
BITMAP
CC
00
00
CC
00
98
74
00
04
ENDCHAR
STARTCHAR NameMe.311
ENCODING 1095
SWIDTH 500 0
DWIDTH 8 0
BBX 6 7 0 1
BITMAP
C4
00
00
FC
00
04
04
ENDCHAR
STARTCHAR NameMe.312
ENCODING 1096
SWIDTH 500 0
DWIDTH 8 0
BBX 6 7 0 1
BITMAP
F4
00
00
F4
00
94
FC
ENDCHAR
STARTCHAR NameMe.313
ENCODING 1097
SWIDTH 500 0
DWIDTH 8 0
BBX 6 9 0 -1
BITMAP
F4
00
00
F4
00
94
FC
00
04
ENDCHAR
STARTCHAR NameMe.314
ENCODING 1098
SWIDTH 500 0
DWIDTH 8 0
BBX 6 7 0 1
BITMAP
E0
00
00
3C
00
24
38
ENDCHAR
STARTCHAR NameMe.315
ENCODING 1099
SWIDTH 500 0
DWIDTH 8 0
BBX 6 7 0 1
BITMAP
C4
00
00
F4
00
9C
F4
ENDCHAR
STARTCHAR NameMe.316
ENCODING 1100
SWIDTH 500 0
DWIDTH 8 0
BBX 6 7 0 1
BITMAP
C0
00
00
FC
00
84
F8
ENDCHAR
STARTCHAR NameMe.317
ENCODING 1101
SWIDTH 500 0
DWIDTH 8 0
BBX 6 7 0 1
BITMAP
7C
00
00
3C
00
84
78
ENDCHAR
STARTCHAR NameMe.318
ENCODING 1102
SWIDTH 500 0
DWIDTH 8 0
BBX 6 7 0 1
BITMAP
FC
00
00
E4
00
E4
98
ENDCHAR
STARTCHAR NameMe.319
ENCODING 1103
SWIDTH 500 0
DWIDTH 8 0
BBX 6 7 0 1
BITMAP
7C
00
00
7C
00
24
C4
ENDCHAR
STARTCHAR NameMe.321
ENCODING 1105
SWIDTH 500 0
DWIDTH 8 0
BBX 6 10 0 1
BITMAP
48
00
00
7C
00
00
FC
00
80
78
ENDCHAR
STARTCHAR .notdef
ENCODING -1
SWIDTH 500 0
DWIDTH 8 0
BBX 5 11 1 0
BITMAP
F8
88
88
88
88
88
88
88
88
88
F8
ENDCHAR
ENDFONT
